<svg width="28" height="22" viewBox="0 0 28 22" fill="none" xmlns="http://www.w3.org/2000/svg">
<path d="M23.1583 2.19107C21.3886 1.36308 19.4964 0.76134 17.5181 0.418701C17.2752 0.857951 16.9914 1.44875 16.7957 1.91873C14.6927 1.60248 12.6091 1.60248 10.5449 1.91873C10.3492 1.44875 10.0589 0.857951 9.81378 0.418701C7.83339 0.76134 5.939 1.36529 4.16934 2.19545C0.5999 7.58934 -0.367715 12.8492 0.116094 18.0345C2.48353 19.8024 4.77786 20.8764 7.03348 21.5792C7.5904 20.8127 8.0871 19.9979 8.515 19.1392C7.70005 18.8295 6.91951 18.4474 6.182 18.0037C6.37766 17.8588 6.56904 17.7072 6.75395 17.5513C11.2523 19.6553 16.1398 19.6553 20.5844 17.5513C20.7715 17.7072 20.9629 17.8588 21.1564 18.0037C20.4167 18.4495 19.634 18.8317 18.8191 19.1414C19.247 19.9979 19.7415 20.8149 20.3006 21.5813C22.5584 20.8786 24.8548 19.8046 27.2223 18.0345C27.79 12.0235 26.2525 6.81187 23.1583 2.19107ZM9.12783 14.8456C7.77748 14.8456 6.67008 13.585 6.67008 12.0498C6.67008 10.5147 7.75383 9.25186 9.12783 9.25186C10.5019 9.25186 11.6092 10.5125 11.5856 12.0498C11.5877 13.585 10.5019 14.8456 9.12783 14.8456ZM18.2105 14.8456C16.8602 14.8456 15.7528 13.585 15.7528 12.0498C15.7528 10.5147 16.8365 9.25186 18.2105 9.25186C19.5845 9.25186 20.6919 10.5125 20.6683 12.0498C20.6683 13.585 19.5845 14.8456 18.2105 14.8456Z" fill="white"/>
</svg>
