<svg width="40" height="40" viewBox="0 0 40 40" fill="none" xmlns="http://www.w3.org/2000/svg">
<g clip-path="url(#clip0_1_36)">
<path d="M16.5372 30.3411C16.4289 30.1607 16.2757 30.0115 16.0925 29.9079C15.9094 29.8043 15.7025 29.7499 15.4921 29.75H6.43225C6.10902 29.75 5.79902 29.6216 5.57046 29.393C5.3419 29.1645 5.2135 28.8545 5.2135 28.5313V9.03125C5.2135 8.70802 5.3419 8.39802 5.57046 8.16946C5.79902 7.9409 6.10902 7.8125 6.43225 7.8125H33.2448C33.568 7.8125 33.878 7.9409 34.1065 8.16946C34.3351 8.39802 34.4635 8.70802 34.4635 9.03125V28.5313C34.4635 28.8545 34.3351 29.1645 34.1065 29.393C33.878 29.6216 33.568 29.75 33.2448 29.75H24.1849C23.9745 29.7499 23.7676 29.8043 23.5845 29.9079C23.4014 30.0115 23.2481 30.1607 23.1398 30.3411L20.8836 34.0339C20.7753 34.2144 20.6221 34.3637 20.439 34.4674C20.2558 34.5711 20.049 34.6256 19.8385 34.6256C19.628 34.6256 19.4212 34.5711 19.238 34.4674C19.0549 34.3637 18.9017 34.2144 18.7934 34.0339L16.5372 30.3411Z" stroke="white" stroke-width="2" stroke-linecap="round" stroke-linejoin="round"/>
<path d="M19.8385 20.6094C20.8481 20.6094 21.6666 19.7909 21.6666 18.7812C21.6666 17.7716 20.8481 16.9531 19.8385 16.9531C18.8289 16.9531 18.0104 17.7716 18.0104 18.7812C18.0104 19.7909 18.8289 20.6094 19.8385 20.6094Z" fill="white"/>
<path d="M13.1354 20.6094C14.145 20.6094 14.9635 19.7909 14.9635 18.7812C14.9635 17.7716 14.145 16.9531 13.1354 16.9531C12.1257 16.9531 11.3073 17.7716 11.3073 18.7812C11.3073 19.7909 12.1257 20.6094 13.1354 20.6094Z" fill="white"/>
<path d="M26.5416 20.6094C27.5513 20.6094 28.3698 19.7909 28.3698 18.7812C28.3698 17.7716 27.5513 16.9531 26.5416 16.9531C25.532 16.9531 24.7135 17.7716 24.7135 18.7812C24.7135 19.7909 25.532 20.6094 26.5416 20.6094Z" fill="white"/>
</g>
<defs>
<clipPath id="clip0_1_36">
<rect width="39" height="39" fill="white" transform="translate(0.338501 0.5)"/>
</clipPath>
</defs>
</svg>
