<svg width="485" height="363" viewBox="0 0 485 363" fill="none" xmlns="http://www.w3.org/2000/svg">
<path d="M474.627 19.9464C476.56 20.6531 478.453 22.9997 479.72 25.2797C480.987 27.573 481.653 29.613 481.653 29.613C482.76 31.9729 483.88 32.9996 485 32.9996V0H452.054C452.054 1.11999 453.08 2.23997 455.427 3.34662C455.427 3.34662 457.48 3.99995 459.76 5.27993C462.04 6.55992 464.374 8.45322 465.08 10.3865C465.947 12.7198 465.6 15.1198 463.254 16.8131C461.094 18.3464 458.574 17.8664 457.52 16.0398C456.307 13.9332 457.16 11.2532 459.694 10.3332H441.24L440.667 8.01323C440.307 6.02659 440.147 3.91995 440.147 1.71998V0L44.9328 0V1.71998C44.9328 3.90662 44.7594 5.99992 44.4128 7.9999L43.8394 10.3199H25.3463C27.893 11.2265 28.7463 13.9065 27.533 16.0131C26.4797 17.8398 23.9464 18.3198 21.7864 16.7865C19.4264 15.1198 19.0931 12.7065 19.9464 10.3732C20.6531 8.43989 22.9997 6.54658 25.2797 5.27993C27.573 4.01328 29.613 3.34662 29.613 3.34662C31.9729 2.23997 32.9996 1.11999 32.9996 0H0V32.9462C1.11999 32.9462 2.23997 31.9196 3.34662 29.573C3.34662 29.573 3.99995 27.5196 5.27993 25.2397C6.55992 22.9597 8.45322 20.6264 10.3865 19.9197C12.7198 19.0531 15.1198 19.3998 16.8131 21.7464C18.3464 23.9064 17.8664 26.4263 16.0398 27.4796C13.9332 28.693 11.2532 27.8396 10.3332 25.3063V43.7594L8.01323 44.3328C6.02659 44.6928 3.91995 44.8528 1.71998 44.8528H0L0 318.054H1.71998C3.90662 318.054 5.99992 318.227 7.9999 318.574L10.3199 319.147V337.64C11.2265 335.094 13.9065 334.24 16.0131 335.454C17.8398 336.507 18.3198 339.04 16.7865 341.2C15.1198 343.56 12.7065 343.894 10.3732 343.04C8.43989 342.334 6.54658 339.987 5.27993 337.707C4.01328 335.414 3.34662 333.374 3.34662 333.374C2.23997 331.014 1.11999 329.987 0 329.987V363H32.9462C32.9462 361.88 31.9196 360.76 29.573 359.653C29.573 359.653 27.5196 359 25.2397 357.72C22.9597 356.44 20.6264 354.547 19.9197 352.613C19.0531 350.28 19.3998 347.88 21.7464 346.187C23.9064 344.654 26.4263 345.134 27.4796 346.96C28.693 349.067 27.8396 351.747 25.3063 352.667H43.7594L44.3328 354.987C44.6928 356.973 44.8528 359.08 44.8528 361.28V363H440.067V361.28C440.067 359.093 440.241 357 440.587 355L441.161 352.68H459.654C457.107 351.773 456.254 349.094 457.467 346.987C458.52 345.16 461.054 344.68 463.214 346.214C465.574 347.88 465.907 350.294 465.054 352.627C464.347 354.56 462 356.453 459.72 357.72C457.427 358.987 455.387 359.653 455.387 359.653C453.027 360.76 452 361.88 452 363H485.013V330.054C483.893 330.054 482.773 331.08 481.667 333.427C481.667 333.427 481.013 335.48 479.733 337.76C478.453 340.04 476.56 342.374 474.627 343.08C472.293 343.947 469.893 343.6 468.2 341.254C466.667 339.094 467.147 336.574 468.974 335.52C471.08 334.307 473.76 335.16 474.68 337.694V319.241L477 318.667C478.987 318.307 481.093 318.147 483.293 318.147H485.013V44.9328H483.293C481.107 44.9328 479.013 44.7594 477.013 44.4128L474.693 43.8394V25.3463C473.787 27.893 471.107 28.7463 469 27.533C467.174 26.4797 466.693 23.9464 468.227 21.7864C469.893 19.4264 472.307 19.0931 474.64 19.9464H474.627ZM9.19988 16.6931C6.55992 17.6664 4.8266 19.7997 3.42662 21.9197V3.42662H21.9597C19.8264 4.81327 17.6931 6.55992 16.7198 9.18655C15.6665 12.0532 15.9865 15.4665 18.1064 18.0264L18.0398 18.0931C15.4798 15.9731 12.0532 15.6531 9.18655 16.7065L9.19988 16.6931ZM13.7732 30.5196C15.0531 30.8396 16.4798 30.8263 17.7864 30.2396C20.4397 29.053 21.9331 26.0663 20.9731 22.9997C21.4397 23.093 22.733 23.573 24.093 24.0264C23.6397 22.653 23.1597 21.3731 23.0664 20.8931C26.1463 21.8531 29.1463 20.3597 30.3196 17.7064C30.8929 16.4131 30.9196 14.9865 30.5996 13.7198H42.6795C42.0261 15.1731 41.2528 16.5198 40.3061 17.7064C37.1062 21.6931 32.1596 24.2397 24.3464 24.253C24.333 32.0529 21.7864 36.9995 17.7731 40.1861C16.5865 41.1328 15.2265 41.9195 13.7732 42.5595V30.4929V30.5196ZM21.9197 359.547H3.42662V341.014C4.81327 343.147 6.55992 345.28 9.18655 346.254C12.0532 347.307 15.4665 346.987 18.0264 344.867L18.0931 344.934C15.9731 347.494 15.6531 350.92 16.7065 353.787C17.6798 356.427 19.8131 358.16 21.9331 359.56L21.9197 359.547ZM30.5196 349.214C30.8396 347.934 30.8263 346.507 30.2396 345.2C29.053 342.547 26.0663 341.054 22.9997 342.014C23.093 341.547 23.573 340.254 24.0264 338.894C22.653 339.347 21.3731 339.827 20.8931 339.92C21.8531 336.84 20.3597 333.84 17.7064 332.667C16.4131 332.094 14.9865 332.067 13.7198 332.387V320.307C15.1731 320.961 16.5198 321.734 17.7064 322.681C21.6931 325.88 24.2397 330.827 24.253 338.64C32.0529 338.654 36.9995 341.2 40.1861 345.214C41.1328 346.4 41.9195 347.76 42.5595 349.214H30.4929H30.5196ZM475.787 346.294C478.427 345.32 480.16 343.187 481.56 341.067V359.56H463.027C465.16 358.173 467.294 356.427 468.267 353.8C469.32 350.934 469 347.52 466.88 344.96L466.947 344.894C469.507 347.014 472.933 347.334 475.8 346.28L475.787 346.294ZM471.214 332.454C469.934 332.134 468.507 332.147 467.2 332.734C464.547 333.92 463.054 336.907 464.014 339.974C463.547 339.88 462.254 339.4 460.894 338.947C461.347 340.32 461.827 341.6 461.92 342.08C458.84 341.12 455.84 342.614 454.667 345.267C454.094 346.56 454.067 347.987 454.387 349.253H442.307C442.96 347.8 443.734 346.454 444.681 345.267C447.88 341.28 452.827 338.734 460.64 338.72C460.654 330.92 463.2 325.974 467.214 322.787C468.4 321.841 469.76 321.054 471.214 320.414V332.48V332.454ZM473.573 47.1061L477 47.8394C478.48 48.0661 480.013 48.1994 481.56 48.266V359.56V314.827C480.2 314.881 478.867 314.987 477.56 315.174C477.187 315.227 476.814 315.294 476.44 315.374L474.133 315.867C473.76 315.947 473.387 316.041 473.013 316.147C470.093 317.001 467.414 318.281 465.094 320.121C460.894 323.467 458.08 328.56 457.4 335.467C450.494 336.147 445.374 338.96 442.027 343.147C440.067 345.587 438.747 348.467 437.894 351.587L437.161 355.013C436.934 356.493 436.801 358.027 436.734 359.573H440.103H48.1727C48.1194 358.213 48.0127 356.88 47.826 355.573C47.7727 355.2 47.7061 354.827 47.6261 354.453L47.1327 352.147C47.0527 351.774 46.9594 351.4 46.8527 351.027C45.9994 348.107 44.7194 345.427 42.8794 343.107C39.5328 338.907 34.4396 336.094 27.533 335.414C26.853 328.507 24.0397 323.387 19.8531 320.041C17.4131 318.081 14.5331 316.761 11.4132 315.907L7.98656 315.174C6.50658 314.947 4.97327 314.814 3.42662 314.747V359.547L3.42662 48.1594C4.7866 48.106 6.11992 47.9994 7.42657 47.8127C7.7999 47.7594 8.17323 47.6927 8.54656 47.6127L10.8532 47.1194C11.2265 47.0394 11.5999 46.9461 11.9732 46.8394C14.8931 45.9861 17.5731 44.7061 19.8931 42.8661C24.093 39.5195 26.9063 34.4262 27.5863 27.5196C34.4929 26.8397 39.6128 24.0264 42.9594 19.8397C44.9194 17.3998 46.2394 14.5198 47.0927 11.3999L47.826 7.97323C48.0527 6.49325 48.186 4.95994 48.2527 3.41329L481.56 3.42662L436.814 3.41329C436.867 4.77327 436.974 6.10659 437.161 7.41324C437.214 7.78657 437.281 8.1599 437.361 8.53322L437.854 10.8399C437.934 11.2132 438.027 11.5865 438.134 11.9598C438.987 14.8798 440.267 17.5598 442.107 19.8797C445.454 24.0797 450.547 26.893 457.454 27.573C458.134 34.4796 460.947 39.5995 465.134 42.9461C467.574 44.9061 470.454 46.2261 473.573 47.0794V47.1061ZM471.254 30.5996V42.6795C469.8 42.0261 468.453 41.2528 467.267 40.3061C463.28 37.1062 460.734 32.1596 460.72 24.3464C452.92 24.333 447.974 21.7864 444.787 17.7731C443.84 16.5865 443.054 15.2265 442.414 13.7732H454.48C454.16 15.0531 454.174 16.4798 454.76 17.7864C455.947 20.4397 458.934 21.9331 462 20.9731C461.907 21.4397 461.427 22.733 460.974 24.093C462.347 23.6397 463.627 23.1597 464.107 23.0664C463.147 26.1463 464.64 29.1463 467.293 30.3196C468.587 30.8929 470.014 30.9196 471.28 30.5996H471.254ZM466.974 18.1198L466.907 18.0531C469.027 15.4931 469.347 12.0665 468.293 9.19988C467.32 6.55992 465.187 4.8266 463.067 3.42662H481.56V21.9597C480.173 19.8264 478.427 17.6931 475.8 16.7198C472.933 15.6665 469.52 15.9865 466.96 18.1064L466.974 18.1198Z" fill="url(#paint0_linear_1_281)"/>
<defs>
<linearGradient id="paint0_linear_1_281" x1="-0.313952" y1="12.9047" x2="87.4324" y2="12.9047" gradientUnits="userSpaceOnUse">
<stop stop-color="#895941"/>
<stop offset="0.2" stop-color="#F7E4B6"/>
<stop offset="0.52" stop-color="#D7AB8C"/>
<stop offset="0.81" stop-color="#F7E4B6"/>
<stop offset="1" stop-color="#895941"/>
</linearGradient>
</defs>
</svg>
