<svg width="219" height="128" viewBox="0 0 219 128" fill="none" xmlns="http://www.w3.org/2000/svg">
<path fill-rule="evenodd" clip-rule="evenodd" d="M21.5491 -66.1309L44.9359 -89.718L70.3272 -74.8919C75.0045 -77.419 80.183 -79.6093 85.3615 -81.1256L92.7116 -111.789L126.121 -109.767L132.97 -81.2941C138.316 -79.6093 143.327 -77.5875 148.004 -75.0603L174.064 -89.718L197.952 -67.9842L181.581 -41.196C184.087 -36.4786 186.258 -31.4242 187.762 -26.0328L218.165 -18.6197L219.167 -6.65771L218.165 14.7392L187.762 22.1523C186.258 27.3751 184.087 32.4295 181.581 37.3154L196.448 61.7449L179.075 83.1418L172.226 86.3429L147.837 71.1798C143.16 73.707 137.982 75.8972 132.803 77.4135L125.119 106.223L101.231 108.077L92.2105 106.223L85.3615 77.4135C80.183 75.8972 75.1716 73.707 70.3272 71.1798L43.7665 87.6908L23.0526 63.2613L36.9176 37.4839C34.4118 32.598 32.2402 27.5436 30.5697 22.3208L0.166992 14.9077L1.67042 -16.4295L30.5697 -25.5274C32.2402 -30.9187 34.2448 -35.9731 36.9176 -40.859L21.8832 -66.1309H21.5491ZM108.915 -46.2504C133.137 -46.2504 152.849 -26.3698 152.849 -1.94028C152.849 22.4892 133.137 42.3698 108.915 42.3698C84.6933 42.3698 64.9816 22.4892 64.9816 -1.94028C64.9816 -26.3698 84.6933 -46.2504 108.915 -46.2504Z" fill="#BDA68C"/>
<g style="mix-blend-mode:multiply" opacity="0.5">
<path fill-rule="evenodd" clip-rule="evenodd" d="M30.5699 59.7232L34.412 52.4786L36.5837 48.2666V37.1469L31.7393 46.0763L22.7187 62.9243L26.3937 67.1363L30.5699 59.3862V59.7232ZM183.753 52.1416L187.929 59.0493L192.439 66.4623L196.282 61.7449L186.426 45.5709L181.414 37.3154V48.4351L183.753 52.3101V52.1416ZM92.5448 -100.669L125.954 -98.6475L132.803 -70.1744L147.838 -63.9407L173.897 -78.5984L184.421 -68.9951L193.442 -60.7396L197.785 -67.8157L173.897 -89.5496L147.838 -74.8919C142.993 -77.419 137.982 -79.6093 132.803 -81.1256L125.954 -109.599L92.5448 -111.62L85.1946 -80.9571C80.0162 -79.2723 74.8377 -77.2506 70.1603 -74.7234L44.769 -89.5496L21.3823 -65.9624L25.5585 -59.0548L34.412 -67.9842L44.602 -78.2614L69.9933 -63.4353L85.0276 -69.669L92.3777 -100.332L92.5448 -100.669ZM30.4029 -25.6959L1.50359 -16.598L1.00244 -5.14139L30.4029 -14.7447L34.5791 -25.022L36.5837 -29.9079V-41.0275C34.7461 -37.4894 33.0757 -33.9514 31.7393 -30.0763C31.2381 -28.56 30.737 -27.2122 30.2358 -25.6959H30.4029ZM183.252 -25.022L187.428 -14.7447L218.833 -6.65771L217.831 -18.6197L187.428 -26.0328C186.927 -27.5491 186.426 -29.0655 185.925 -30.4133C184.588 -34.1199 183.085 -37.6579 181.247 -41.0275V-29.9079L183.252 -25.022Z" fill="#46525B"/>
</g>
<g style="mix-blend-mode:screen" opacity="0.5">
<path fill-rule="evenodd" clip-rule="evenodd" d="M108.915 -46.2504C84.6934 -46.2504 64.9817 -26.3698 64.9817 -1.94028C64.9817 1.4293 65.4828 4.79889 66.151 8C70.6613 -11.7121 88.0343 -26.3698 108.915 -26.3698C129.796 -26.3698 147.169 -11.7121 151.68 8C152.348 4.79889 152.849 1.59778 152.849 -1.94028C152.849 -26.3698 133.137 -46.2504 108.915 -46.2504Z" fill="#C6C6C6"/>
</g>
<g style="mix-blend-mode:screen" opacity="0.5">
<path fill-rule="evenodd" clip-rule="evenodd" d="M172.06 86.3429L147.671 71.1798C142.993 73.707 137.815 75.8972 132.636 77.4135L124.952 106.223L101.064 108.077L92.0436 106.223L85.1947 77.4135C80.0162 75.8972 75.0047 73.707 70.1603 71.1798L43.5997 87.6907L22.8857 63.2612L25.0574 81.2885L43.7667 107.571L70.3274 91.0603C75.0047 93.5875 80.0162 95.7778 85.3617 97.2941L92.2107 126.104L101.231 127.957L125.119 126.104L132.803 97.2941C137.982 95.7778 143.16 93.5875 147.838 91.0603L172.227 106.223L179.076 103.022L194.945 79.2668L196.449 61.9134L179.076 83.3103L172.227 86.5114L172.06 86.3429Z" fill="#C6C6C6"/>
</g>
<g style="mix-blend-mode:screen" opacity="0.5">
<path fill-rule="evenodd" clip-rule="evenodd" d="M31.9062 46.0763L36.5836 37.3154C34.0779 32.4295 31.9062 27.3751 30.2357 22.1523L-0.166992 14.7392L6.34788 32.0925L30.2357 41.8643C30.7369 43.3807 31.238 44.7285 31.7392 46.0763H31.9062Z" fill="#C6C6C6"/>
</g>
<g style="mix-blend-mode:screen" opacity="0.5">
<path fill-rule="evenodd" clip-rule="evenodd" d="M181.247 37.1469L186.258 45.234C186.593 44.0546 187.094 42.8752 187.428 41.6959L212.485 32.0926L217.831 14.5707L187.428 21.9838C185.924 27.2067 183.753 32.261 181.247 37.1469Z" fill="#C6C6C6"/>
</g>
</svg>
