<svg width="34" height="35" viewBox="0 0 34 35" fill="none" xmlns="http://www.w3.org/2000/svg">
<rect x="0.5" y="0.5" width="32.4388" height="33.5918" stroke="#BDA68C"/>
<g clip-path="url(#clip0_1_244)">
<path d="M17 20.75C19.0711 20.75 20.75 19.0711 20.75 17C20.75 14.9289 19.0711 13.25 17 13.25C14.9289 13.25 13.25 14.9289 13.25 17C13.25 19.0711 14.9289 20.75 17 20.75Z" stroke="#BDA68C" stroke-linecap="round" stroke-linejoin="round"/>
<path d="M8.884 21.6959C8.4696 20.9822 8.15212 20.2164 7.93994 19.4188L9.51307 17.45C9.49525 17.149 9.49525 16.8472 9.51307 16.5463L7.94088 14.5775C8.1527 13.7798 8.46953 13.0137 8.88307 12.2994L11.3871 12.0181C11.5871 11.7928 11.8003 11.5797 12.0256 11.3797L12.3068 8.87656C13.0201 8.465 13.7849 8.15005 14.5812 7.94L16.5499 9.51313C16.8509 9.49532 17.1527 9.49532 17.4537 9.51313L19.4224 7.94094C20.2202 8.15276 20.9863 8.46959 21.7006 8.88313L21.9818 11.3872C22.2071 11.5872 22.4203 11.8003 22.6203 12.0256L25.1234 12.3069C25.5378 13.0207 25.8553 13.7865 26.0674 14.5841L24.4943 16.5528C24.5121 16.8538 24.5121 17.1556 24.4943 17.4566L26.0665 19.4253C25.8562 20.2228 25.5409 20.9889 25.129 21.7034L22.6249 21.9847C22.425 22.21 22.2118 22.4232 21.9865 22.6231L21.7053 25.1263C20.9915 25.5407 20.2257 25.8581 19.4281 26.0703L17.4593 24.4972C17.1583 24.515 16.8566 24.515 16.5556 24.4972L14.5868 26.0694C13.7893 25.859 13.0232 25.5438 12.3087 25.1319L12.0274 22.6278C11.8022 22.4279 11.589 22.2147 11.389 21.9894L8.884 21.6959Z" stroke="#BDA68C" stroke-linecap="round" stroke-linejoin="round"/>
</g>
<defs>
<clipPath id="clip0_1_244">
<rect width="24" height="24" fill="white" transform="translate(5 5)"/>
</clipPath>
</defs>
</svg>
