<svg width="230" height="120" viewBox="0 0 230 120" fill="none" xmlns="http://www.w3.org/2000/svg">
<mask id="path-1-inside-1_1_118" fill="white">
<path fill-rule="evenodd" clip-rule="evenodd" d="M132.33 15L117.67 0.339844L103.01 15H0.0646973V120H229.065V15H132.33Z"/>
</mask>
<path fill-rule="evenodd" clip-rule="evenodd" d="M132.33 15L117.67 0.339844L103.01 15H0.0646973V120H229.065V15H132.33Z" fill="#191B27"/>
<path d="M117.67 0.339844L118.377 -0.367263L117.67 -1.07437L116.963 -0.367263L117.67 0.339844ZM132.33 15L131.623 15.7071L131.916 16H132.33V15ZM103.01 15V16H103.424L103.717 15.7071L103.01 15ZM0.0646973 15V14H-0.935303V15H0.0646973ZM0.0646973 120H-0.935303V121H0.0646973V120ZM229.065 120V121H230.065V120H229.065ZM229.065 15H230.065V14H229.065V15ZM116.963 1.04695L131.623 15.7071L133.037 14.2929L118.377 -0.367263L116.963 1.04695ZM103.717 15.7071L118.377 1.04695L116.963 -0.367263L102.303 14.2929L103.717 15.7071ZM0.0646973 16H103.01V14H0.0646973V16ZM1.0647 120V15H-0.935303V120H1.0647ZM229.065 119H0.0646973V121H229.065V119ZM228.065 15V120H230.065V15H228.065ZM132.33 16H229.065V14H132.33V16Z" fill="#BDA68C" mask="url(#path-1-inside-1_1_118)"/>
</svg>
