<svg width="1106" height="782" viewBox="0 0 1106 782" fill="none" xmlns="http://www.w3.org/2000/svg">
<path d="M1095.63 19.9464C1097.56 20.6531 1099.45 22.9997 1100.72 25.2797C1101.99 27.573 1102.65 29.613 1102.65 29.613C1103.76 31.9729 1104.88 32.9996 1106 32.9996V0H1073.05C1073.05 1.11999 1074.08 2.23997 1076.43 3.34662C1076.43 3.34662 1078.48 3.99995 1080.76 5.27993C1083.04 6.55992 1085.37 8.45322 1086.08 10.3865C1086.95 12.7198 1086.6 15.1198 1084.25 16.8131C1082.09 18.3464 1079.57 17.8664 1078.52 16.0398C1077.31 13.9332 1078.16 11.2532 1080.69 10.3332H1062.24L1061.67 8.01323C1061.31 6.02659 1061.15 3.91995 1061.15 1.71998V0H44.9328V1.71998C44.9328 3.90662 44.7594 5.99992 44.4128 7.9999L43.8394 10.3199H25.3463C27.893 11.2265 28.7463 13.9065 27.533 16.0131C26.4797 17.8398 23.9464 18.3198 21.7864 16.7865C19.4264 15.1198 19.0931 12.7065 19.9464 10.3732C20.6531 8.43989 22.9997 6.54658 25.2797 5.27993C27.573 4.01328 29.613 3.34662 29.613 3.34662C31.9729 2.23997 32.9996 1.11999 32.9996 0H0V32.9462C1.11999 32.9462 2.23997 31.9196 3.34662 29.573C3.34662 29.573 3.99995 27.5196 5.27993 25.2397C6.55992 22.9597 8.45322 20.6264 10.3865 19.9197C12.7198 19.0531 15.1198 19.3998 16.8131 21.7464C18.3464 23.9064 17.8664 26.4263 16.0398 27.4796C13.9332 28.693 11.2532 27.8396 10.3332 25.3063V43.7594L8.01323 44.3328C6.02659 44.6928 3.91995 44.8528 1.71998 44.8528H0V737.054H1.71998C3.90662 737.054 5.99992 737.227 7.9999 737.574L10.3199 738.147V756.64C11.2265 754.094 13.9065 753.24 16.0131 754.454C17.8398 755.507 18.3198 758.04 16.7865 760.2C15.1198 762.56 12.7065 762.894 10.3732 762.04C8.43989 761.334 6.54658 758.987 5.27993 756.707C4.01328 754.414 3.34662 752.374 3.34662 752.374C2.23997 750.014 1.11999 748.987 0 748.987V782H32.9462C32.9462 780.88 31.9196 779.76 29.573 778.653C29.573 778.653 27.5196 778 25.2397 776.72C22.9597 775.44 20.6264 773.547 19.9197 771.613C19.0531 769.28 19.3998 766.88 21.7464 765.187C23.9064 763.654 26.4263 764.134 27.4796 765.96C28.693 768.067 27.8396 770.747 25.3063 771.667H43.7594L44.3328 773.987C44.6928 775.973 44.8528 778.08 44.8528 780.28V782H1061.07V780.28C1061.07 778.093 1061.24 776 1061.59 774L1062.16 771.68H1080.65C1078.11 770.773 1077.25 768.094 1078.47 765.987C1079.52 764.16 1082.05 763.68 1084.21 765.214C1086.57 766.88 1086.91 769.294 1086.05 771.627C1085.35 773.56 1083 775.453 1080.72 776.72C1078.43 777.987 1076.39 778.653 1076.39 778.653C1074.03 779.76 1073 780.88 1073 782H1106.01V749.054C1104.89 749.054 1103.77 750.08 1102.67 752.427C1102.67 752.427 1102.01 754.48 1100.73 756.76C1099.45 759.04 1097.56 761.374 1095.63 762.08C1093.29 762.947 1090.89 762.6 1089.2 760.254C1087.67 758.094 1088.15 755.574 1089.97 754.52C1092.08 753.307 1094.76 754.16 1095.68 756.694V738.241L1098 737.667C1099.99 737.307 1102.09 737.147 1104.29 737.147H1106.01V44.9328H1104.29C1102.11 44.9328 1100.01 44.7594 1098.01 44.4128L1095.69 43.8394V25.3463C1094.79 27.893 1092.11 28.7463 1090 27.533C1088.17 26.4797 1087.69 23.9464 1089.23 21.7864C1090.89 19.4264 1093.31 19.0931 1095.64 19.9464H1095.63ZM9.19988 16.6931C6.55992 17.6664 4.8266 19.7997 3.42662 21.9197V3.42662H21.9597C19.8264 4.81327 17.6931 6.55992 16.7198 9.18655C15.6665 12.0532 15.9865 15.4665 18.1064 18.0264L18.0398 18.0931C15.4798 15.9731 12.0532 15.6531 9.18655 16.7065L9.19988 16.6931ZM13.7732 30.5196C15.0531 30.8396 16.4798 30.8263 17.7864 30.2396C20.4397 29.053 21.9331 26.0663 20.9731 22.9997C21.4397 23.093 22.733 23.573 24.093 24.0264C23.6397 22.653 23.1597 21.3731 23.0664 20.8931C26.1463 21.8531 29.1463 20.3597 30.3196 17.7064C30.8929 16.4131 30.9196 14.9865 30.5996 13.7198H42.6795C42.0261 15.1731 41.2528 16.5198 40.3061 17.7064C37.1062 21.6931 32.1596 24.2397 24.3464 24.253C24.333 32.0529 21.7864 36.9995 17.7731 40.1861C16.5865 41.1328 15.2265 41.9195 13.7732 42.5595V30.4929V30.5196ZM21.9197 778.547H3.42662V760.014C4.81327 762.147 6.55992 764.28 9.18655 765.254C12.0532 766.307 15.4665 765.987 18.0264 763.867L18.0931 763.934C15.9731 766.494 15.6531 769.92 16.7065 772.787C17.6798 775.427 19.8131 777.16 21.9331 778.56L21.9197 778.547ZM30.5196 768.214C30.8396 766.934 30.8263 765.507 30.2396 764.2C29.053 761.547 26.0663 760.054 22.9997 761.014C23.093 760.547 23.573 759.254 24.0264 757.894C22.653 758.347 21.3731 758.827 20.8931 758.92C21.8531 755.84 20.3597 752.84 17.7064 751.667C16.4131 751.094 14.9865 751.067 13.7198 751.387V739.307C15.1731 739.961 16.5198 740.734 17.7064 741.681C21.6931 744.88 24.2397 749.827 24.253 757.64C32.0529 757.654 36.9995 760.2 40.1861 764.214C41.1328 765.4 41.9195 766.76 42.5595 768.214H30.4929H30.5196ZM1096.79 765.294C1099.43 764.32 1101.16 762.187 1102.56 760.067V778.56H1084.03C1086.16 777.173 1088.29 775.427 1089.27 772.8C1090.32 769.934 1090 766.52 1087.88 763.96L1087.95 763.894C1090.51 766.014 1093.93 766.334 1096.8 765.28L1096.79 765.294ZM1092.21 751.454C1090.93 751.134 1089.51 751.147 1088.2 751.734C1085.55 752.92 1084.05 755.907 1085.01 758.974C1084.55 758.88 1083.25 758.4 1081.89 757.947C1082.35 759.32 1082.83 760.6 1082.92 761.08C1079.84 760.12 1076.84 761.614 1075.67 764.267C1075.09 765.56 1075.07 766.987 1075.39 768.253H1063.31C1063.96 766.8 1064.73 765.454 1065.68 764.267C1068.88 760.28 1073.83 757.734 1081.64 757.72C1081.65 749.92 1084.2 744.974 1088.21 741.787C1089.4 740.841 1090.76 740.054 1092.21 739.414V751.48V751.454ZM1094.57 47.1061L1098 47.8394C1099.48 48.0661 1101.01 48.1994 1102.56 48.266V403.461V733.827C1101.2 733.881 1099.87 733.987 1098.56 734.174C1098.19 734.227 1097.81 734.294 1097.44 734.374L1095.13 734.867C1094.76 734.947 1094.39 735.041 1094.01 735.147C1091.09 736.001 1088.41 737.281 1086.09 739.121C1081.89 742.467 1079.08 747.56 1078.4 754.467C1071.49 755.147 1066.37 757.96 1063.03 762.147C1061.07 764.587 1059.75 767.467 1058.89 770.587L1058.16 774.013C1057.93 775.493 1057.8 777.027 1057.73 778.573H484.74H48.1727C48.1194 777.213 48.0127 775.88 47.826 774.573C47.7727 774.2 47.7061 773.827 47.6261 773.453L47.1327 771.147C47.0527 770.773 46.9594 770.4 46.8527 770.027C45.9994 767.107 44.7194 764.427 42.8794 762.107C39.5328 757.907 34.4396 755.094 27.533 754.414C26.853 747.507 24.0397 742.387 19.8531 739.041C17.4131 737.081 14.5331 735.761 11.4132 734.907L7.98656 734.174C6.50658 733.947 4.97327 733.814 3.42662 733.747L3.42662 484.754V48.1594C4.7866 48.106 6.11992 47.9994 7.42657 47.8127C7.7999 47.7594 8.17323 47.6927 8.54656 47.6127L10.8532 47.1194C11.2265 47.0394 11.5999 46.9461 11.9732 46.8394C14.8931 45.9861 17.5731 44.7061 19.8931 42.8661C24.093 39.5195 26.9063 34.4262 27.5863 27.5196C34.4929 26.8397 39.6128 24.0264 42.9594 19.8397C44.9194 17.3998 46.2394 14.5198 47.0927 11.3999L47.826 7.97323C48.0527 6.49325 48.186 4.95994 48.2527 3.41329H528.74H1057.81C1057.87 4.77327 1057.97 6.10659 1058.16 7.41324C1058.21 7.78657 1058.28 8.1599 1058.36 8.53322L1058.85 10.8399C1058.93 11.2132 1059.03 11.5865 1059.13 11.9598C1059.99 14.8798 1061.27 17.5598 1063.11 19.8797C1066.45 24.0797 1071.55 26.893 1078.45 27.573C1079.13 34.4796 1081.95 39.5995 1086.13 42.9461C1088.57 44.9061 1091.45 46.2261 1094.57 47.0794V47.1061ZM1092.25 30.5996V42.6795C1090.8 42.0261 1089.45 41.2528 1088.27 40.3061C1084.28 37.1062 1081.73 32.1596 1081.72 24.3464C1073.92 24.333 1068.97 21.7864 1065.79 17.7731C1064.84 16.5865 1064.05 15.2265 1063.41 13.7732H1075.48C1075.16 15.0531 1075.17 16.4798 1075.76 17.7864C1076.95 20.4397 1079.93 21.9331 1083 20.9731C1082.91 21.4397 1082.43 22.733 1081.97 24.093C1083.35 23.6397 1084.63 23.1597 1085.11 23.0664C1084.15 26.1463 1085.64 29.1463 1088.29 30.3196C1089.59 30.8929 1091.01 30.9196 1092.28 30.5996H1092.25ZM1087.97 18.1198L1087.91 18.0531C1090.03 15.4931 1090.35 12.0665 1089.29 9.19988C1088.32 6.55992 1086.19 4.8266 1084.07 3.42662H1102.56V21.9597C1101.17 19.8264 1099.43 17.6931 1096.8 16.7198C1093.93 15.6665 1090.52 15.9865 1087.96 18.1064L1087.97 18.1198Z" fill="url(#paint0_linear_1_126)"/>
<defs>
<linearGradient id="paint0_linear_1_126" x1="-0.715929" y1="27.8002" x2="199.379" y2="27.8002" gradientUnits="userSpaceOnUse">
<stop stop-color="#895941"/>
<stop offset="0.2" stop-color="#F7E4B6"/>
<stop offset="0.52" stop-color="#D7AB8C"/>
<stop offset="0.81" stop-color="#F7E4B6"/>
<stop offset="1" stop-color="#895941"/>
</linearGradient>
</defs>
</svg>
